<?xml version="1.0" standalone="no"?>
<!DOCTYPE svg PUBLIC "-//W3C//DTD SVG 20010904//EN"
 "http://www.w3.org/TR/2001/REC-SVG-20010904/DTD/svg10.dtd">
<svg version="1.0" xmlns="http://www.w3.org/2000/svg"
 width="360.000000pt" height="360.000000pt" viewBox="0 0 360.000000 360.000000"
 preserveAspectRatio="xMidYMid meet">

<g transform="translate(0.000000,360.000000) scale(0.100000,-0.100000)"
fill="#000000" stroke="none">
<path d="M1299 2805 c-263 -59 -477 -244 -569 -490 -168 -455 110 -949 588
-1041 147 -28 295 -12 447 49 l84 34 233 -234 c128 -129 251 -244 273 -255 94
-49 217 -15 269 75 33 58 40 99 26 160 -12 50 -24 63 -263 304 -193 194 -248
255 -240 265 22 26 64 144 79 222 20 95 14 257 -11 351 -69 256 -293 480 -550
550 -85 23 -283 28 -366 10z m283 -206 c159 -34 306 -145 383 -290 113 -214
78 -478 -86 -653 -106 -114 -227 -173 -374 -183 -261 -18 -485 126 -583 375
-22 59 -26 82 -26 187 -1 101 3 131 22 187 61 177 218 323 398 373 61 17 196
19 266 4z"/>
<path d="M1380 2449 c-119 -23 -245 -123 -296 -233 -33 -72 -47 -161 -33 -203
36 -109 199 -90 199 24 0 52 41 135 81 165 41 31 91 48 136 48 104 0 130 165
31 199 -35 12 -54 12 -118 0z"/>
</g>
</svg>
